<svg width="40" height="40" fill="none" xmlns="http://www.w3.org/2000/svg"><circle cx="20" cy="20" r="18.2" fill="#FEFEFE"/><circle cx="20" cy="20" r="18.2" fill="#FEFEFE"/><path fill-rule="evenodd" clip-rule="evenodd" d="M20 40c11.046 0 20-8.954 20-20S31.046 0 20 0 0 8.954 0 20s8.954 20 20 20Zm0-1.8c10.052 0 18.2-8.148 18.2-18.2S30.052 1.8 20 1.8 1.8 9.948 1.8 20 9.948 38.2 20 38.2Z" fill="#054128"/><path d="m13.783 21.016-9.05 8.96 2.458 3.957 6.592-6.682 6.332 6.272L30.282 23.33l3.985 3.92V16.2h-11.21l4.134 3.995-7.076 7.056-6.332-6.235Z" fill="#054128"/></svg>