<svg width="40" height="40" fill="none" xmlns="http://www.w3.org/2000/svg"><path fill-rule="evenodd" clip-rule="evenodd" d="M20 40c11.046 0 20-8.954 20-20S31.046 0 20 0 0 8.954 0 20s8.954 20 20 20Zm0-1.8c10.052 0 18.2-8.148 18.2-18.2S30.052 1.8 20 1.8 1.8 9.948 1.8 20 9.948 38.2 20 38.2Z" fill="#054128"/><circle cx="20" cy="20" r="18.2" fill="#FEFEFE"/><path d="M30.625 13.65a.745.745 0 0 0-1.475-.005H11.387c-.617 0-1.117.5-1.117 1.118v3.465c0 .435.25.81.612.995L8.39 26.73a1.118 1.118 0 0 0 1.06 1.47h4.613c.48 0 .908-.308 1.06-.765l1.246-3.755c.028.004.056.009.084.01.018.002.112.009.263.009.68 0 2.529-.131 3.995-1.443.83-.742 1.39-1.718 1.68-2.91h1.993c.617 0 1.117-.501 1.117-1.118v-.525h5.049c.617 0 1.117-.5 1.117-1.118v-1.822c0-.592-.46-1.075-1.042-1.114Zm-11.39 6.927c-.693.63-1.58.815-2.124.867l.697-2.099h2.247c-.191.498-.465.91-.82 1.232Z" fill="#054128"/></svg>