<svg width="40" height="40" fill="none" xmlns="http://www.w3.org/2000/svg"><circle cx="20" cy="20" r="18.2" fill="#FEFEFE"/><path fill-rule="evenodd" clip-rule="evenodd" d="M21.25 20.6c0-.229-.066-.44-.173-.625h-2.154a1.238 1.238 0 0 0-.173.625 1.25 1.25 0 0 0 2.5 0Zm1.25 0a2.5 2.5 0 0 1-5 0c0-.218.034-.426.088-.625H10v6.875a2.5 2.5 0 0 0 2.5 2.5h15a2.5 2.5 0 0 0 2.5-2.5v-6.875h-7.588c.054.2.088.407.088.625Zm0-7.5h-5v-.625c0-.345.28-.625.625-.625h3.75c.345 0 .625.28.625.625v.625Zm5 0h-3.75v-1.25c0-.69-.56-1.25-1.25-1.25h-5c-.69 0-1.25.56-1.25 1.25v1.25H12.5a2.5 2.5 0 0 0-2.5 2.5v3.125h20V15.6a2.5 2.5 0 0 0-2.5-2.5Z" fill="#054128"/><path fill-rule="evenodd" clip-rule="evenodd" d="M20 40c11.046 0 20-8.954 20-20S31.046 0 20 0 0 8.954 0 20s8.954 20 20 20Zm0-1.8c10.052 0 18.2-8.148 18.2-18.2S30.052 1.8 20 1.8 1.8 9.948 1.8 20 9.948 38.2 20 38.2Z" fill="#054128"/></svg>