<svg width="40" height="40" fill="none" xmlns="http://www.w3.org/2000/svg"><circle cx="20" cy="20" r="20" fill="#FEFEFE"/><path d="M11.64 13.571a1.952 1.952 0 1 0 0-3.904 1.952 1.952 0 0 0 0 3.904ZM19.986 18.747v.003l.014-.002.014.002v-.003a1.35 1.35 0 0 0 0-2.697v-.003l-.014.001-.014-.001v.003a1.35 1.35 0 0 0 0 2.697ZM28.36 13.571a1.952 1.952 0 1 0 0-3.904 1.952 1.952 0 0 0 0 3.904Z" fill="#054128"/><path d="M30.092 14.496H27.513c-.995 0-1.906.558-2.359 1.443l-1.579 4.618a.383.383 0 0 1-.598.106l-.983-.85a1.589 1.589 0 0 0-1.08-.423H19.086c-.4 0-.786.15-1.08.423l-.981.85a.382.382 0 0 1-.6-.106l-1.578-4.618a2.648 2.648 0 0 0-2.358-1.443h-2.58c-.946 0-1.975 1.03-1.975 1.975v6.562c0 .473.384.857.857.857h.597l.326 5.596c0 .503.408.911.911.911h1.992a.912.912 0 0 0 .911-.911l.326-5.596-.004-3.996a.137.137 0 0 1 .258-.062l1.253 3.083a1.06 1.06 0 0 0 1.662.296l1.198-.883a.14.14 0 0 1 .148-.026c.05.023.082.072.082.126l.004 3.465.226 3.874c0 .348.282.63.63.63h1.379a.631.631 0 0 0 .631-.63l.226-3.874.004-3.465c0-.054.032-.103.082-.126a.14.14 0 0 1 .148.026l1.198.883a1.06 1.06 0 0 0 1.662-.296l1.253-3.083a.137.137 0 0 1 .258.062l-.004 3.996.326 5.596c0 .503.408.911.911.911h1.991a.912.912 0 0 0 .912-.911l.326-5.596h.598a.856.856 0 0 0 .856-.857v-6.562c0-.946-1.03-1.975-1.975-1.975Z" fill="#054128"/><path fill-rule="evenodd" clip-rule="evenodd" d="M20 40c11.046 0 20-8.954 20-20S31.046 0 20 0 0 8.954 0 20s8.954 20 20 20Zm0-1.8c10.052 0 18.2-8.148 18.2-18.2S30.052 1.8 20 1.8 1.8 9.948 1.8 20 9.948 38.2 20 38.2Z" fill="#054128"/></svg>