<svg width="14" height="14" fill="none" xmlns="http://www.w3.org/2000/svg"><path fill-rule="evenodd" clip-rule="evenodd" d="M10.299 14c-1.01-.036-3.871-.432-6.868-3.428C.435 7.575.04 4.714 0 3.704-.053 2.164 1.126.669 2.489.084A1.03 1.03 0 0 1 3.5.196c1.122.818 1.896 2.054 2.56 3.027a1.055 1.055 0 0 1-.179 1.393L4.514 5.632a.337.337 0 0 0-.1.431c.31.564.862 1.402 1.493 2.033.631.631 1.51 1.219 2.112 1.564a.339.339 0 0 0 .451-.114l.89-1.355a1.054 1.054 0 0 1 1.442-.233c.987.683 2.138 1.444 2.981 2.523a1.032 1.032 0 0 1 .133 1.041c-.587 1.37-2.072 2.536-3.617 2.479Z" fill="#CCC"/></svg>